<svg aria-hidden="true" style="position:absolute;width:0;height:0;overflow:hidden" xmlns="http://www.w3.org/2000/svg">
    <defs>
        <symbol id="icon-astronautsvg" viewBox="0 0 64 64">
            <path fill="#2196f3" d="M63.948 9.048c-.126-.385-.459-.667-.861-.725l-3.821-.556-1.71-3.462c-.358-.73-1.554-.73-1.913 0l-1.71 3.462-3.821.556c-.402.059-.735.339-.862.725-.125.386-.021.811.27 1.093l2.766 2.696-.653 3.806c-.068.4.096.804.423 1.043.332.241.765.271 1.124.081l3.418-1.797 3.418 1.797c.156.082.328.123.497.123.221 0 .442-.068.627-.204.328-.239.493-.643.423-1.043l-.653-3.806 2.766-2.695c.29-.284.394-.707.27-1.093zm-4.926 2.654c-.251.244-.366.598-.306.944l.382 2.228-2.001-1.052c-.156-.082-.326-.123-.497-.123s-.34.04-.497.123l-2.001 1.052.382-2.228c.06-.346-.056-.699-.306-.944l-1.62-1.579 2.238-.325c.348-.05.648-.269.803-.584L56.6 7.187l1.001 2.027c.156.315.456.533.803.584l2.238.325-1.618 1.579zM52.267 41.044h-2.133v2.133h2.133v-2.133zM52.267 45.311h-2.133v2.133h2.133v-2.133zM54.4 43.178h-2.133v2.133H54.4v-2.133zM50.134 43.178h-2.133v2.133h2.133v-2.133zM44.8 52.778h-2.133v2.133H44.8v-2.133zM44.8 57.045h-2.133v2.133H44.8v-2.133zM46.934 54.911h-2.133v2.133h2.133v-2.133zM42.667 54.911h-2.133v2.133h2.133v-2.133zM32 48.511h-2.133v2.133H32v-2.133zM32 52.778h-2.133v2.133H32v-2.133zM34.133 50.645H32v2.133h2.133v-2.133zM29.867 50.645h-2.133v2.133h2.133v-2.133zM11.733 12.244H9.6v2.133h2.133v-2.133zM11.733 16.511H9.6v2.133h2.133v-2.133zM13.866 14.377h-2.133v2.133h2.133v-2.133zM9.6 14.377H7.467v2.133H9.6v-2.133z" />
            <path fill="#212121" d="M49.429 28.319c-.575-.776-1.419-1.275-2.377-1.409-.962-.137-1.911.116-2.679.704l-2.505 1.92-3.795 2.834-2.716-1.082c4.843-2.173 8.227-7.017 8.227-12.64 0-7.646-6.245-13.867-13.922-13.867S15.74 11 15.74 18.646c0 2.771.829 5.348 2.24 7.517l-5.528-.048h-.01c-.017 0-.031.009-.047.01-.106.004-.209.026-.31.062-.026.01-.052.015-.077.027-.013.005-.026.006-.038.013l-6.466 3.192c-.001 0-.002 0-.002.001l-3.787 1.821c-.042.018-.084.043-.126.07C.08 32.316-.434 34.289.392 35.902c.441.858 1.19 1.489 2.112 1.778.355.111.718.165 1.078.165.579 0 1.153-.142 1.679-.422l2.776-1.476 4.528-2.338 2.714-.016L4.396 44.424c-.001.001-.002.001-.003.002l-2.677 2.667c-.632.629-.98 1.465-.98 2.355 0 .89.348 1.727.98 2.357.65.646 1.504.971 2.358.971.856 0 1.709-.324 2.361-.971l2.628-2.618 3.482-2.599 1.802 1.794-3.523 3.508c-.001.001-.002.001-.003.002l-2.677 2.667c-.633.629-.98 1.465-.98 2.355 0 .89.348 1.727.98 2.357.65.646 1.505.971 2.36.971s1.71-.324 2.361-.971l6.963-6.933c.001-.001.001-.002.002-.003l2.019-2-.008-.008c.013-.013.031-.017.044-.031L32.217 38.98l6.942.988c.05.008.1.011.15.011.129 0 .254-.031.374-.077.035-.013.066-.03.099-.047.038-.019.079-.03.115-.054l6.427-4.267c.023-.016.036-.042.059-.059.026-.02.058-.029.081-.051l2.543-2.382c1.323-1.24 1.506-3.271.424-4.724zM4.261 35.54c-.347.186-.74.223-1.117.103-.373-.116-.676-.371-.853-.716-.322-.627-.135-1.391.429-1.804l2.627-1.264.898 2.625-1.984 1.055zm6.994-3.655-3.097 1.6-.878-2.567 4.054-2.001-.079 2.968zm30.199-13.241c0 1.837-.438 3.569-1.198 5.119l-8.363-3.798c-.087-1.147-.683-2.15-1.576-2.776l2.928-9.721c4.755 1.513 8.209 5.949 8.209 11.176zm-23.578 0c0-6.47 5.289-11.734 11.789-11.734.506 0 1 .043 1.49.104l-2.864 9.507c-.038-.001-.075-.012-.114-.012-2.065 0-3.745 1.675-3.745 3.733s1.68 3.733 3.745 3.733c1.389 0 2.589-.767 3.236-1.889l7.725 3.509c-2.149 2.893-5.59 4.78-9.473 4.78-6.5 0-11.789-5.264-11.789-11.734zm11.913 1.6c0 .882-.723 1.6-1.612 1.6s-1.612-.718-1.612-1.6c0-.882.723-1.6 1.612-1.6s1.612.718 1.612 1.6zM4.93 50.292c-.473.468-1.237.467-1.709.001-.227-.227-.352-.527-.352-.846 0-.318.125-.618.352-.843l1.924-1.917 1.702 1.695-1.918 1.909zm6.427 7.467c-.473.468-1.238.469-1.71.001-.227-.227-.352-.527-.352-.846 0-.318.125-.618.352-.843l1.925-1.918 1.704 1.695-1.919 1.91zm6.964-6.937c-.001.001-.002.001-.003.002l-3.53 3.52-1.704-1.695 3.526-3.51v-.001c.001-.001.002-.001.003-.002.08-.08.13-.176.179-.271.014-.028.041-.051.052-.08.033-.082.038-.171.051-.257.006-.049.028-.095.028-.145 0-.072-.026-.141-.041-.211-.013-.064-.013-.129-.037-.191-.041-.1-.11-.189-.182-.275-.02-.023-.028-.053-.05-.076h-.001c-.001 0-.001-.003-.002-.004l-3.214-3.2c-.034-.034-.078-.048-.116-.077-.056-.044-.111-.084-.174-.115-.061-.03-.123-.048-.187-.065-.068-.019-.134-.034-.206-.039-.065-.004-.126.002-.191.01-.072.008-.139.018-.208.041-.067.021-.127.054-.189.09-.04.022-.084.03-.122.058l-3.547 2.648-1.802-1.794 4.798-4.772 8.721 8.577-1.855 1.838zm13.637-14.034c-.031-.004-.06.008-.091.005-.078-.004-.152.001-.23.014-.061.011-.118.022-.176.043-.068.023-.13.056-.193.094-.06.036-.114.075-.166.123-.026.022-.056.033-.08.059l-9.397 10.291-8.656-8.513 5.666-5.636c.417-.416.419-1.091.003-1.509-.21-.21-.486-.314-.763-.313v-.001l-4.437.027.056-3.215 6.208.053c2.53 2.588 6.059 4.202 9.963 4.202.875 0 1.728-.091 2.559-.245.08.064.159.129.259.17l4.819 1.92.661 3.287-6.005-.854zm8.083.357-.626-3.116 2.893-2.16 1.893 2.513-4.16 2.763zm7.507-5.662-1.676 1.57-1.862-2.473 1.663-1.275c.31-.239.702-.336 1.086-.286.386.054.727.256.96.569.433.584.359 1.397-.171 1.894z" />
            <path fill="#212121" d="m27.204 37.088-4.286-4.267c-.415-.415-1.089-.415-1.505 0l-4.285 4.267c-.201.202-.314.472-.314.756s.112.556.314.756l4.285 4.267c.208.207.481.31.753.31s.545-.103.752-.31l4.286-4.267c.201-.2.315-.472.315-.756s-.113-.556-.315-.756zm-5.038 3.518-2.773-2.762 2.773-2.762 2.774 2.762-2.774 2.762zM34.328 10.142l-.515 2.072c.142.035 3.475.903 3.475 4.298h2.133c0-4.034-3.331-5.931-5.093-6.369zM39.422 18.644h-2.133v2.133h2.133v-2.133z" />
        </symbol>

        <symbol id="icon-checkbox-checked" viewBox="0 0 68 64">
            <path fill="#2196f3" style="fill: var(--color1, #2196f3)" d="M8.533 0h51.2c4.713 0 8.533 3.821 8.533 8.533v46.933c0 4.713-3.82 8.533-8.533 8.533h-51.2c-4.713 0-8.533-3.821-8.533-8.533v-46.933c0-4.713 3.821-8.533 8.533-8.533z"></path>
            <path fill="#fff" style="fill: var(--color2, #fff); stroke: var(--color2, #fff)" stroke="#fff" stroke-linejoin="miter" stroke-linecap="butt" stroke-miterlimit="4" stroke-width="0.8533" d="M16.883 33.074l-0.293-0.28-4.409 4.177 15.534 14.819 32.636-31.134-4.38-4.178-28.256 26.93-10.832-10.333z"></path>
        </symbol>
        <symbol id="icon-checkbox" viewBox="0 0 68 64">
            <path d="M60.681 7.111v49.778h-53.096v-49.778h53.096zM60.681 0h-53.096c-4.172 0-7.585 3.2-7.585 7.111v49.778c0 3.911 3.413 7.111 7.585 7.111h53.096c4.172 0 7.585-3.2 7.585-7.111v-49.778c0-3.911-3.413-7.111-7.585-7.111z"></path>
        </symbol>
        <symbol id="icon-clocksvg" viewBox="0 0 64 64">
            <path fill="#212121" d="M62.593 30.602C62.589 13.697 48.883-.004 31.977 0S1.371 13.711 1.375 30.616c.003 13.316 8.614 25.102 21.299 29.152.121.038.247.058.374.057.241 0 .478-.065.685-.188.27-.16.472-.414.566-.713l7.73-24.5c2.113-.011 3.817-1.733 3.806-3.846s-1.732-3.817-3.846-3.807c-.568.002-1.129.133-1.64.383L20.137 16.941c-.507-.489-1.314-.475-1.803.031-.478.495-.478 1.278 0 1.772l10.207 10.218c-.783 1.599-.335 3.528 1.073 4.618l-7.365 23.346C7.693 51.564.24 35.418 5.602 20.863S27.11-1.146 41.665 4.216s22.009 21.508 16.647 36.063c-2.62 7.111-8.002 12.862-14.924 15.947l-.796-3.749c-.145-.689-.823-1.129-1.512-.983-.217.046-.419.148-.585.296l-7.674 6.851c-.526.468-.573 1.274-.105 1.801.152.171.348.298.566.368l9.797 3.127c.67.215 1.389-.153 1.604-.824.068-.212.08-.438.034-.655l-.782-3.678c11.329-4.776 18.684-15.884 18.658-28.178zm-30.609-1.275c.704 0 1.275.571 1.275 1.275s-.571 1.275-1.275 1.275c-.705 0-1.275-.571-1.275-1.275s.571-1.275 1.275-1.275zm4.201 29.728 4.368-3.897 1.206 5.681-5.574-1.784z" />
            <path fill="#2196f3" d="M30.709 6.37v2.551c0 .705.571 1.275 1.275 1.275s1.275-.571 1.275-1.275V6.37c0-.704-.571-1.275-1.275-1.275s-1.275.571-1.275 1.275zM7.752 29.327c-.705 0-1.275.571-1.275 1.275s.571 1.275 1.275 1.275h2.551c.705 0 1.275-.571 1.275-1.275s-.571-1.275-1.275-1.275H7.752zM56.216 31.878c.705 0 1.275-.571 1.275-1.275s-.571-1.275-1.275-1.275h-2.551c-.704 0-1.275.571-1.275 1.275s.571 1.275 1.275 1.275h2.551z" />
        </symbol>

        <symbol id="icon-diagramsvg" viewBox="0 0 64 64">
            <path fill="#2196f3" d="M29.851 29.929h2.132v9.595h-2.132v-9.595zM38.38 34.194h2.132v5.331H38.38v-5.331zM21.322 37.392h2.132v2.132h-2.132v-2.132zM14.926 36.326h2.132v3.198h-2.132v-3.198z" />
            <path fill="#212121" d="M3.198 56.582h51.173c1.766 0 3.198-1.432 3.198-3.198V49.12c0-1.766-1.432-3.198-3.198-3.198h-1.066V19.335l6.056-5.737c1.406.693 3.107.272 4.026-.997s.791-3.017-.305-4.137-2.84-1.287-4.13-.396c-1.289.892-1.747 2.584-1.085 4.004l-4.563 4.325v-2.46c0-1.766-1.432-3.198-3.198-3.198H7.462c-1.766 0-3.198 1.432-3.198 3.198V45.92H3.198C1.432 45.92 0 47.352 0 49.118v4.264c0 1.766 1.432 3.198 3.198 3.198zm57.57-46.909c.589 0 1.066.477 1.066 1.066s-.477 1.066-1.066 1.066c-.589 0-1.066-.477-1.066-1.066s.477-1.066 1.066-1.066zM6.397 13.938c0-.589.477-1.066 1.066-1.066h42.644c.589 0 1.066.477 1.066 1.066v4.477l-2.132 2.026V16.07c0-.589-.477-1.066-1.066-1.066H9.595c-.589 0-1.066.477-1.066 1.066v26.653c0 .589.477 1.066 1.066 1.066h38.38c.589 0 1.066-.477 1.066-1.066V23.374l2.132-2.02v24.567H6.396V13.938zm9.595 13.859c-1.442-.004-2.709.957-3.093 2.347s.21 2.865 1.451 3.601c1.24.736 2.82.551 3.856-.452l3.706 1.859c.431.215.953.114 1.273-.245l7.878-8.863 7.744 5.803c.415.311.995.278 1.372-.079l6.73-6.375v16.262H10.661v-24.52h36.248v5.321l-7.543 7.143-7.809-5.854c-.444-.332-1.068-.27-1.436.144l-7.986 8.985-2.985-1.493c.022-.128.035-.257.041-.387 0-1.766-1.432-3.198-3.198-3.198zm1.066 3.198c0 .589-.477 1.066-1.066 1.066s-1.066-.477-1.066-1.066c0-.589.477-1.066 1.066-1.066s1.066.477 1.066 1.066zm6.396 17.058h10.661v1.066c0 .589-.477 1.066-1.066 1.066H24.52c-.589 0-1.066-.477-1.066-1.066v-1.066zM2.132 49.119c0-.589.477-1.066 1.066-1.066h18.124v1.066c0 1.766 1.432 3.198 3.198 3.198h8.529c1.766 0 3.198-1.432 3.198-3.198v-1.066h18.124c.589 0 1.066.477 1.066 1.066v4.264c0 .589-.477 1.066-1.066 1.066H3.198c-.589 0-1.066-.477-1.066-1.066v-4.264z" />
        </symbol>
        <symbol id="icon-facebooksvg" viewBox="0 0 64 64">
            <path d="M42.659 10.627h5.843V.451C47.494.312 44.027 0 39.99 0c-8.424 0-14.195 5.299-14.195 15.037V24h-9.296v11.376h9.296V64h11.397V35.379h8.92l1.416-11.376H37.189v-7.837c.003-3.288.888-5.539 5.469-5.539z" />
        </symbol>
        <symbol id="icon-anthenesvg" viewBox="0 0 60 64">
            <path fill="#212121" d="m59.718 44.195-16.886-17.01 1.874-9.231c.484.189.998.287 1.517.291h.013c2.385.028 4.34-1.882 4.369-4.267s-1.882-4.34-4.267-4.369c-2.385-.028-4.34 1.882-4.369 4.266-.006.51.078 1.018.249 1.498l-9.92 1.211L16.117.318c-.198-.203-.47-.318-.753-.32-.28.001-.548.113-.747.31l-3.025 3.008c-.416.417-.416 1.092 0 1.508l1.628 1.651c-6.306 11.596-4.258 25.956 5.039 35.326.085.082.184.148.292.195-.067.361-.102.727-.105 1.094v12.373h-12.8c-2.944.004-5.33 2.389-5.333 5.333v2.133c0 .589.478 1.067 1.067 1.067h49.067c.589 0 1.067-.478 1.067-1.067v-2.133c-.004-2.944-2.389-5.33-5.333-5.333h-12.8v-5.484c2.005.421 4.048.635 6.097.64 4.916-.005 9.754-1.231 14.08-3.567l1.636 1.646c.199.203.469.318.753.32.28-.001.548-.113.747-.31l3.025-3.008c.416-.417.416-1.092 0-1.508zM44.731 12.466c.835-.831 2.186-.827 3.017.008s.827 2.186-.008 3.017c-.4.398-.941.621-1.505.621h-.006c-1.178-.006-2.128-.966-2.122-2.144.003-.564.229-1.104.629-1.502h-.004zm-2.511 7.009-1.197 5.891-2.351-2.365 3.548-3.526zm-1.212-1.803-3.84 3.818-2.971-2.987 6.811-.831zM46.18 57.6c1.767 0 3.2 1.433 3.2 3.2v1.067H2.447V60.8c0-1.767 1.433-3.2 3.2-3.2H46.18zm-14.934-4.267v2.133H20.579v-2.133h10.667zM20.58 51.2v-8.107c0-2.588 2.392-4.693 5.333-4.693s5.333 2.106 5.333 4.693V51.2H20.579zm12.8-3.392v-4.715c0-3.764-3.349-6.827-7.467-6.827-2.662-.041-5.151 1.314-6.562 3.572-8.116-8.548-9.943-21.29-4.557-31.774l37.204 37.417c-5.745 2.922-12.33 3.745-18.618 2.326zm22.578-1.367L13.844 4.079l1.509-1.504 15.87 15.96c.007 0 .012.014.019.019l26.229 26.383-1.514 1.504z" />
            <path fill="#2196f3" d="M25.923 40.533h-.01c-1.767-.003-3.202 1.428-3.205 3.195s1.428 3.202 3.195 3.205h.01c1.767.003 3.202-1.428 3.205-3.195s-1.428-3.202-3.195-3.205zm.746 3.957c-.201.2-.473.312-.756.31-.589-.003-1.064-.483-1.061-1.072.002-.282.115-.552.314-.751.199-.197.467-.309.747-.31.589.003 1.064.483 1.061 1.072-.001.282-.114.552-.314.751h.01z" />
        </symbol>

        <symbol id="icon-instagramsvg" viewBox="0 0 64 64">
            <path d="M63.937 18.816c-.15-3.401-.7-5.738-1.487-7.764-.813-2.15-2.063-4.075-3.701-5.676-1.6-1.625-3.538-2.888-5.664-3.688C51.048.9 48.722.35 45.321.2 41.895.037 40.807 0 32.118 0s-9.777.038-13.19.188c-3.401.15-5.738.7-7.764 1.488-2.151.813-4.076 2.063-5.676 3.701C3.863 6.977 2.6 8.915 1.8 11.041 1.012 13.079.462 15.404.312 18.805c-.163 3.426-.2 4.514-.2 13.203S.15 41.785.3 45.198c.15 3.4.7 5.738 1.488 7.764.813 2.15 2.075 4.075 3.7 5.676 1.6 1.625 3.538 2.888 5.664 3.688 2.038.788 4.363 1.338 7.764 1.487 3.413.15 4.501.188 13.19.188s9.777-.037 13.19-.188c3.401-.15 5.738-.7 7.764-1.487 4.301-1.663 7.702-5.064 9.365-9.364.787-2.038 1.338-4.364 1.488-7.764.15-3.413.188-4.501.188-13.19s-.013-9.777-.163-13.19zm-5.763 26.13c-.138 3.126-.663 4.813-1.1 5.939-1.075 2.788-3.288 5.001-6.077 6.077-1.125.438-2.825.963-5.939 1.1-3.376.15-4.388.188-12.927.188s-9.564-.037-12.928-.188c-3.126-.137-4.813-.662-5.939-1.1-1.387-.513-2.65-1.325-3.675-2.388-1.063-1.038-1.875-2.288-2.388-3.675-.438-1.125-.963-2.826-1.1-5.939-.15-3.376-.188-4.389-.188-12.928s.037-9.564.188-12.927c.137-3.126.662-4.813 1.1-5.939.513-1.388 1.325-2.65 2.401-3.676 1.037-1.063 2.288-1.875 3.675-2.388 1.125-.438 2.826-.963 5.939-1.1 3.376-.15 4.389-.188 12.927-.188 8.552 0 9.564.038 12.928.188 3.126.138 4.813.663 5.939 1.1 1.387.512 2.65 1.325 3.675 2.388 1.062 1.038 1.875 2.288 2.388 3.676.437 1.125.963 2.825 1.1 5.939.15 3.376.188 4.388.188 12.927s-.037 9.54-.188 12.915z" />
            <path d="M32.119 15.565c-9.076 0-16.441 7.364-16.441 16.441s7.364 16.441 16.441 16.441c9.077 0 16.441-7.364 16.441-16.441s-7.364-16.441-16.441-16.441zm0 27.106c-5.888 0-10.665-4.776-10.665-10.665s4.776-10.665 10.665-10.665c5.889 0 10.665 4.776 10.665 10.665s-4.776 10.665-10.665 10.665zM53.048 14.915c0 2.12-1.719 3.838-3.839 3.838s-3.838-1.719-3.838-3.838c0-2.12 1.718-3.838 3.838-3.838s3.839 1.718 3.839 3.838z" />
        </symbol>
        <symbol id="icon-linkedinsvg" viewBox="0 0 64 64">
            <path d="M63.984 64v-.003H64V40.525c0-11.483-2.472-20.328-15.896-20.328-6.453 0-10.784 3.541-12.552 6.899h-.187v-5.827H22.637v42.728H35.89V42.84c0-5.571 1.056-10.957 7.955-10.957 6.797 0 6.899 6.357 6.899 11.315v20.803h13.24zM1.056 21.272h13.269V64H1.056V21.272zM7.685 0C3.442 0 0 3.443 0 7.685s3.443 7.757 7.685 7.757c4.243 0 7.685-3.515 7.685-7.757C15.367 3.442 11.925 0 7.685 0z" />
        </symbol>
        <symbol id="icon-send" viewBox="0 0 64 64">
            <path d="M64 0l-64 36 20.453 7.575 31.547-29.575-23.995 32.372 0.019 0.007-0.024-0.007v17.628l11.47-13.382 14.53 5.382 10-56z"></path>
        </symbol>
        <symbol id="icon-modal-email" viewBox="0 0 85 64">
            <path d="M74.667 0h-64c-4.4 0-7.96 3.6-7.96 8l-0.040 48c0 4.4 3.6 8 8 8h64c4.4 0 8-3.6 8-8v-48c0-4.4-3.6-8-8-8zM73.067 17l-28.28 17.68c-1.28 0.8-2.96 0.8-4.24 0l-28.28-17.68c-1-0.64-1.6-1.72-1.6-2.88 0-2.68 2.92-4.28 5.2-2.88l26.8 16.76 26.8-16.76c2.28-1.4 5.2 0.2 5.2 2.88 0 1.16-0.6 2.24-1.6 2.88z"></path>
        </symbol>
        <symbol id="icon-modal-tel" viewBox="0 0 64 64">
            <path d="M54.839 41.703l-8.403-0.959c-2.018-0.232-4.003 0.463-5.426 1.886l-6.087 6.087c-9.362-4.764-17.037-12.406-21.801-21.802l6.12-6.12c1.423-1.423 2.117-3.407 1.886-5.425l-0.959-8.337c-0.397-3.341-3.209-5.856-6.583-5.856h-5.723c-3.738 0-6.848 3.11-6.617 6.848 1.753 28.253 24.349 50.815 52.568 52.568 3.738 0.231 6.848-2.878 6.848-6.617v-5.723c0.033-3.342-2.481-6.154-5.823-6.551z"></path>
        </symbol>
        <symbol id="icon-modal-name" viewBox="0 0 64 64">
            <path d="M32 32c8.84 0 16-7.16 16-16s-7.16-16-16-16c-8.84 0-16 7.16-16 16s7.16 16 16 16zM32 40c-10.68 0-32 5.36-32 16v4c0 2.2 1.8 4 4 4h56c2.2 0 4-1.8 4-4v-4c0-10.64-21.32-16-32-16z"></path>
        </symbol>
        <symbol id="icon-modal-close" viewBox="0 0 64 64">
            <path d="M64 6.446l-6.446-6.446-25.554 25.554-25.554-25.554-6.446 6.446 25.554 25.554-25.554 25.554 6.446 6.446 25.554-25.554 25.554 25.554 6.446-6.446-25.554-25.554 25.554-25.554z"></path>
        </symbol>
        <symbol id="icon-mailsvg" viewBox="0 0 85 64">
            <path d="M77.333 0H8C3.588 0 0 3.589 0 8v48c0 4.411 3.589 8 8 8h69.333c4.411 0 8-3.589 8-8V8c0-4.412-3.589-8-8-8zm0 5.333c.362 0 .707.075 1.022.206L42.666 36.471 6.977 5.539c.315-.131.66-.206 1.022-.206h69.333zm0 53.334H8c-1.471 0-2.667-1.195-2.667-2.667V11.174l35.586 30.841c.503.435 1.125.651 1.747.651s1.245-.216 1.747-.651l35.586-30.841V56c0 1.471-1.195 2.667-2.667 2.667z" />
        </symbol>
        <symbol id="icon-smartphonesvg" viewBox="0 0 40 64">
            <path d="M34 0H6C2.691 0 0 2.691 0 6v52c0 3.309 2.691 6 6 6h28c3.309 0 6-2.691 6-6V6c0-3.309-2.691-6-6-6zM6 4h28c1.103 0 2 .896 2 2v42H4V6c0-1.104.896-2 2-2zm28 56H6c-1.104 0-2-.896-2-2v-6h32v6c0 1.104-.897 2-2 2z" />
            <path d="M9.414 54.956c.781.73.781 1.912 0 2.641s-2.047.73-2.828 0c-.781-.729-.781-1.912 0-2.641s2.047-.729 2.828 0z" />
        </symbol>
        <symbol id="icon-twittersvg" viewBox="0 0 64 64">
            <path d="M64 12.156c-2.38 1.044-4.916 1.736-7.56 2.072 2.72-1.624 4.796-4.176 5.772-7.252-2.536 1.512-5.336 2.58-8.32 3.176C51.484 7.588 48.052 6 44.308 6c-7.264 0-13.112 5.896-13.112 13.124 0 1.04.088 2.04.304 2.992-10.908-.532-20.56-5.76-27.044-13.724-1.132 1.964-1.796 4.212-1.796 6.632 0 4.544 2.34 8.572 5.828 10.904-2.108-.04-4.176-.652-5.928-1.616v.144c0 6.376 4.548 11.672 10.512 12.892-1.068.292-2.232.432-3.44.432-.84 0-1.688-.048-2.484-.224 1.7 5.196 6.524 9.016 12.26 9.14-4.464 3.492-10.132 5.596-16.268 5.596-1.076 0-2.108-.048-3.14-.18C5.812 55.86 12.7 58 20.128 58c24.144 0 37.344-20 37.344-37.336 0-.58-.02-1.14-.048-1.696 2.604-1.848 4.792-4.156 6.576-6.812z" />
        </symbol>
        <symbol id="icon-clientsvg1" viewBox="0 0 32 32">
            <path d="M8.078 20.448c0.074 0.083 0.113 0.188 0.111 0.295 0 0.007 0.001 0.014 0.001 0.022 0 0.066-0.015 0.128-0.041 0.184l0.001-0.003c-0.032 0.067-0.076 0.123-0.131 0.168l-0.001 0.001c-0.125 0.086-0.28 0.138-0.446 0.138-0.018 0-0.036-0.001-0.054-0.002l0.002 0h-0.877v-1.869h0.859c0.015-0.001 0.033-0.002 0.051-0.002 0.158 0 0.305 0.047 0.428 0.127l-0.003-0.002c0.056 0.043 0.1 0.097 0.128 0.157s0.042 0.127 0.038 0.193c0.005 0.103-0.030 0.204-0.1 0.286-0.067 0.074-0.159 0.126-0.261 0.146 0.116 0.019 0.221 0.076 0.296 0.16zM7.049 20.166h0.367c0.083 0.005 0.166-0.017 0.233-0.062 0.027-0.022 0.048-0.050 0.062-0.082l0.001-0.001c0.011-0.024 0.017-0.052 0.017-0.082 0-0.006-0-0.012-0.001-0.018l0 0.001c0-0.005 0.001-0.010 0.001-0.016 0-0.030-0.006-0.059-0.018-0.085l0.001 0.001c-0.014-0.033-0.035-0.061-0.061-0.083l-0-0c-0.059-0.040-0.132-0.064-0.211-0.064-0.010 0-0.021 0-0.031 0.001l0.001-0h-0.361v0.491zM7.686 20.883c0.029-0.023 0.052-0.051 0.067-0.084l0.001-0.001c0.012-0.026 0.020-0.057 0.020-0.090 0-0.005-0-0.010-0.001-0.015l0 0.001c0-0.004 0-0.009 0-0.014 0-0.033-0.008-0.065-0.021-0.093l0.001 0.001c-0.016-0.034-0.040-0.063-0.068-0.086l-0-0c-0.063-0.043-0.141-0.068-0.225-0.068-0.009 0-0.017 0-0.026 0.001l0.001-0h-0.385v0.514h0.39c0.088 0.005 0.175-0.018 0.246-0.065zM9.832 21.252l-0.477-0.731h-0.18v0.731h-0.411v-1.869h0.778c0.017-0.001 0.036-0.002 0.055-0.002 0.183 0 0.352 0.060 0.488 0.162l-0.002-0.002c0.109 0.101 0.175 0.235 0.185 0.377 0.001 0.012 0.001 0.025 0.001 0.039 0 0.136-0.049 0.261-0.129 0.358l0.001-0.001c-0.097 0.099-0.224 0.168-0.367 0.189l-0.004 0 0.509 0.747h-0.447zM9.176 20.267h0.336c0.233 0 0.35-0.094 0.35-0.283 0-0.005 0-0.010 0-0.015 0-0.035-0.007-0.069-0.020-0.1l0.001 0.002c-0.016-0.038-0.038-0.070-0.067-0.097l-0-0c-0.064-0.048-0.144-0.077-0.232-0.077-0.011 0-0.023 0-0.034 0.001l0.001-0h-0.34l0.004 0.569zM12.079 20.875h-0.819l-0.145 0.376h-0.431l0.752-1.848h0.466l0.749 1.848h-0.431l-0.142-0.376zM11.969 20.593l-0.299-0.789-0.299 0.789h0.598zM14.89 21.252h-0.408l-0.915-1.271v1.271h-0.407v-1.869h0.407l0.915 1.279v-1.279h0.408v1.869zM17.218 20.805c-0.085 0.141-0.213 0.256-0.369 0.33-0.159 0.075-0.344 0.118-0.54 0.118-0.012 0-0.023-0-0.035-0l0.002 0h-0.726v-1.869h0.726c0.010-0 0.022-0 0.034-0 0.195 0 0.381 0.042 0.548 0.119l-0.008-0.003c0.156 0.072 0.285 0.186 0.369 0.326 0.084 0.152 0.128 0.32 0.128 0.491s-0.044 0.338-0.128 0.49zM16.751 20.76c0.111-0.116 0.179-0.273 0.18-0.446v-0c0-0.164-0.064-0.322-0.18-0.446-0.126-0.1-0.288-0.161-0.464-0.161-0.016 0-0.033 0.001-0.049 0.002l0.002-0h-0.283v1.21h0.283c0.014 0.001 0.030 0.001 0.047 0.001 0.176 0 0.337-0.060 0.466-0.161l-0.002 0.001zM12.334 8.986s5.264 1.82 5.153 4.453v4.454s-5.261-1.82-5.151-4.454l-0.002-4.453zM22.177 16.851c0.994-0.626 2.144-1.014 3.345-1.128v-1.395c-1.383 0.488-2.557 1.374-3.345 2.523z"></path>
            <path d="M21.579 17.271c0.814-1.5 2.224-2.658 3.942-3.235v-4.018s-7.497 2.592-7.339 6.342v6.341s0.334-0.116 0.86-0.333c0-0.203 0-0.407 0.024-0.613 0.155-1.741 1.059-3.354 2.513-4.485z"></path>
            <path d="M20.866 19.627c0.039-0.44 0.127-0.875 0.262-1.298-0.905 0.977-1.454 2.189-1.567 3.465-0.011 0.12-0.017 0.241-0.020 0.365 0.625-0.274 1.099-0.506 1.563-0.755l-0.121 0.059c-0.133-0.604-0.172-1.222-0.117-1.836zM21.165 19.649c-0.015 0.154-0.023 0.334-0.023 0.515 0 0.406 0.042 0.803 0.122 1.186l-0.007-0.037c2.048-1.122 4.35-2.856 4.261-4.952v-0.183c-1.464 0.15-2.833 0.736-3.897 1.667-0.235 0.528-0.397 1.14-0.455 1.782l-0.002 0.022z"></path>
        </symbol>
        <symbol id="icon-clientsvg2" viewBox="0 0 32 32">
            <path d="M16.128 15.217c-0.115-0.148-0.184-0.337-0.184-0.542 0-0.020 0.001-0.040 0.002-0.060l-0 0.003v-0.871c0-0.267 0.060-0.469 0.182-0.608s0.329-0.208 0.623-0.207c0.277 0 0.474 0.059 0.59 0.177 0.127 0.151 0.189 0.335 0.174 0.52v0.205h-0.495v-0.207c0.002-0.068-0.003-0.136-0.015-0.203-0.009-0.049-0.034-0.091-0.071-0.12l-0-0c-0.044-0.030-0.099-0.048-0.158-0.048-0.007 0-0.015 0-0.022 0.001l0.001-0c-0.006-0-0.014-0.001-0.021-0.001-0.062 0-0.12 0.019-0.168 0.051l0.001-0.001c-0.041 0.033-0.070 0.079-0.082 0.131l-0 0.002c-0.013 0.060-0.020 0.128-0.020 0.198 0 0.006 0 0.012 0 0.018v-0.001 1.056c-0.008 0.102 0.014 0.204 0.063 0.296 0.026 0.032 0.059 0.056 0.097 0.071l0.002 0.001c0.029 0.012 0.063 0.018 0.098 0.018 0.011 0 0.021-0.001 0.031-0.002l-0.001 0c0.006 0.001 0.014 0.001 0.021 0.001 0.058 0 0.111-0.018 0.155-0.049l-0.001 0.001c0.038-0.032 0.065-0.076 0.074-0.127l0-0.001c0.011-0.070 0.017-0.141 0.015-0.212v-0.214h0.495v0.196c0.001 0.015 0.002 0.034 0.002 0.052 0 0.188-0.065 0.361-0.174 0.497l0.001-0.002c-0.114 0.129-0.308 0.194-0.593 0.194s-0.501-0.069-0.622-0.213zM18.191 15.227c-0.125-0.136-0.188-0.333-0.188-0.594v-0.916c0-0.259 0.063-0.454 0.188-0.587s0.334-0.199 0.628-0.198c0.291 0 0.499 0.066 0.625 0.198s0.189 0.328 0.189 0.587v0.915c0 0.259-0.063 0.457-0.191 0.594s-0.334 0.204-0.622 0.204-0.501-0.069-0.628-0.203zM19.049 15.007c0.045-0.085 0.065-0.178 0.059-0.271v-1.121c0.001-0.009 0.001-0.020 0.001-0.030 0-0.086-0.022-0.167-0.060-0.238l0.001 0.003c-0.026-0.032-0.060-0.057-0.1-0.072l-0.002-0.001c-0.029-0.011-0.062-0.018-0.097-0.018-0.012 0-0.024 0.001-0.035 0.002l0.001-0c-0.010-0.001-0.022-0.002-0.034-0.002-0.035 0-0.069 0.007-0.099 0.018l0.002-0.001c-0.041 0.015-0.075 0.040-0.101 0.072l-0 0c-0.045 0.083-0.066 0.175-0.059 0.266v1.126c-0.006 0.093 0.014 0.186 0.059 0.271 0.029 0.028 0.065 0.051 0.104 0.067 0.038 0.015 0.081 0.024 0.127 0.024s0.090-0.009 0.13-0.025l-0.002 0.001c0.040-0.016 0.075-0.039 0.104-0.067v-0.005zM20.228 12.958h0.533l0.401 1.689 0.411-1.689h0.519l0.053 2.438h-0.384l-0.041-1.694-0.396 1.694h-0.308l-0.41-1.701-0.038 1.701h-0.388l0.048-2.438zM22.741 12.958h0.831c0.479 0 0.718 0.231 0.718 0.692 0 0.442-0.252 0.663-0.756 0.662h-0.283v1.083h-0.513l0.003-2.438zM23.451 14c0.051 0.006 0.102 0.002 0.151-0.012s0.094-0.035 0.131-0.065c0.059-0.082 0.085-0.179 0.074-0.275 0-0.008 0-0.017 0-0.027 0-0.069-0.009-0.136-0.026-0.2l0.001 0.005c-0.008-0.026-0.021-0.048-0.038-0.067l0 0c-0.018-0.020-0.039-0.036-0.063-0.048l-0.001-0.001c-0.060-0.025-0.129-0.040-0.202-0.040-0.009 0-0.019 0-0.028 0.001l0.001-0h-0.199v0.729h0.199zM25.029 12.958h0.551l0.565 2.438h-0.478l-0.112-0.562h-0.491l-0.115 0.562h-0.485l0.565-2.438zM25.5 14.552l-0.192-1.023-0.192 1.023h0.383zM26.601 12.958h0.359l0.687 1.391v-1.391h0.426v2.438h-0.341l-0.691-1.452v1.452h-0.44l0.001-2.438zM29.070 14.466l-0.571-1.505h0.481l0.349 0.967 0.327-0.967h0.471l-0.564 1.505v0.93h-0.492v-0.93zM16.92 16.462v0.127h-0.418v0.991h-0.175v-0.991h-0.421v-0.127h1.014zM18.232 17.581h-0.136c-0.001 0-0.002 0-0.004 0-0.013 0-0.025-0.004-0.035-0.011l0 0c-0.010-0.006-0.017-0.015-0.022-0.025l-0-0-0.121-0.266h-0.581l-0.121 0.266c-0.004 0.012-0.010 0.022-0.019 0.030l-0 0c-0.010 0.007-0.022 0.011-0.035 0.011-0.001 0-0.002-0-0.003-0h-0.135l0.513-1.118h0.178l0.519 1.114zM17.383 17.166h0.484l-0.205-0.455c-0.013-0.029-0.026-0.064-0.036-0.1l-0.001-0.006c-0.007 0.021-0.013 0.042-0.019 0.059l-0.019 0.047-0.203 0.454zM19.116 17.471c0.032 0.002 0.064 0.002 0.097 0 0.027-0.002 0.055-0.007 0.082-0.013 0.025-0.005 0.050-0.012 0.074-0.020 0.023-0.008 0.045-0.018 0.069-0.027v-0.251h-0.205c-0.001 0-0.001 0-0.002 0-0.010 0-0.019-0.003-0.026-0.009l0 0c-0.003-0.002-0.006-0.005-0.008-0.009l-0-0c-0.002-0.003-0.002-0.006-0.002-0.010 0-0 0-0.001 0-0.001v0-0.086h0.398v0.429c-0.062 0.039-0.134 0.070-0.211 0.090l-0.005 0.001c-0.042 0.011-0.085 0.018-0.128 0.023-0.050 0.005-0.1 0.007-0.15 0.007-0.002 0-0.004 0-0.007 0-0.090 0-0.177-0.015-0.257-0.043l0.006 0.002c-0.079-0.027-0.147-0.067-0.206-0.118l0.001 0.001c-0.055-0.049-0.099-0.108-0.131-0.174l-0.001-0.003c-0.030-0.066-0.047-0.143-0.047-0.225 0-0.003 0-0.005 0-0.008v0c-0-0.002-0-0.004-0-0.007 0-0.082 0.017-0.16 0.048-0.231l-0.001 0.004c0.029-0.066 0.075-0.127 0.132-0.177s0.128-0.090 0.205-0.116c0.088-0.029 0.181-0.043 0.275-0.042 0.048 0 0.095 0.003 0.142 0.010 0.042 0.006 0.083 0.015 0.122 0.028 0.036 0.011 0.070 0.027 0.103 0.044s0.061 0.037 0.089 0.058l-0.049 0.069c-0.004 0.006-0.010 0.012-0.016 0.015l-0 0c-0.007 0.004-0.015 0.006-0.023 0.006h-0c-0.012-0-0.023-0.003-0.032-0.009l0 0c-0.021-0.010-0.037-0.019-0.053-0.028l0.003 0.002c-0.019-0.011-0.042-0.021-0.065-0.029l-0.003-0.001c-0.026-0.009-0.058-0.018-0.090-0.024l-0.004-0.001c-0.037-0.006-0.080-0.010-0.123-0.010-0.002 0-0.005 0-0.007 0h0c-0.002-0-0.004-0-0.006-0-0.069 0-0.135 0.011-0.196 0.032l0.004-0.001c-0.057 0.020-0.109 0.050-0.151 0.088-0.041 0.038-0.073 0.084-0.094 0.136l-0.001 0.003c-0.022 0.055-0.034 0.119-0.034 0.186s0.013 0.131 0.036 0.19l-0.001-0.004c0.022 0.053 0.057 0.101 0.103 0.141 0.042 0.038 0.093 0.069 0.149 0.088 0.065 0.019 0.134 0.027 0.203 0.022zM20.75 17.453h0.56v0.127h-0.731v-1.118h0.175l-0.004 0.991zM21.893 17.581h-0.175v-1.118h0.175v1.118zM22.545 16.468c0.011 0.005 0.019 0.012 0.027 0.020l0 0 0.75 0.843c-0-0.006-0.001-0.013-0.001-0.020s0-0.014 0.001-0.021l-0 0.001v-0.833h0.153v1.123h-0.088c-0.002 0-0.004 0-0.006 0-0.012 0-0.023-0.002-0.033-0.007l0.001 0c-0.011-0.006-0.020-0.013-0.027-0.021l-0-0-0.749-0.842v0.869h-0.147v-1.118h0.091c0.010 0 0.020 0.002 0.029 0.005zM24.766 16.462v0.123h-0.621v0.369h0.504v0.119h-0.504v0.382h0.621v0.123h-0.802v-1.115h0.802zM6.389 9.557l7.787 1.909v6.689l-7.787-1.908v-6.69zM5.889 8.986v7.586l8.785 2.154v-7.585l-8.785-2.155z"></path>
            <path d="M10.597 22.247l-8.786-2.156v-7.584l8.786 2.155v7.585z"></path>
            <path d="M6.035 9.47l7.685 1.885-3.269 2.823-7.686-1.886 3.269-2.822zM5.889 8.986l-4.078 3.52 8.786 2.155 4.077-3.521-8.785-2.155zM11.092 21.82l3.582-3.094-3.583-0.878v3.973z"></path>
        </symbol>
        <symbol id="icon-clientsvg3" viewBox="0 0 32 32">
            <path d="M7.289 13.314h-0.001c-0.724 0-1.311 0.521-1.311 1.165v0.001c0 0.643 0.587 1.165 1.311 1.165h0.001c0.724 0 1.311-0.522 1.311-1.165v-0.001c0-0.644-0.587-1.165-1.311-1.165zM16.965 12.942c-0.002-0.894-0.402-1.75-1.113-2.382s-1.675-0.988-2.68-0.99c-1.006 0.002-1.97 0.357-2.681 0.989s-1.112 1.489-1.114 2.383v4.928s7.588-0.751 7.589-4.927v-0.001zM3.321 19.487c0.002 0.622 0.281 1.218 0.775 1.657s1.165 0.687 1.864 0.689c0.699-0.002 1.37-0.25 1.864-0.689s0.773-1.035 0.775-1.657v-3.429s-5.279 0.523-5.279 3.428zM5.96 20.101c-0.137 0-0.27-0.036-0.384-0.104-0.111-0.065-0.198-0.159-0.253-0.272l-0.002-0.004c-0.033-0.069-0.052-0.149-0.052-0.235 0-0.043 0.005-0.084 0.014-0.124l-0.001 0.004c0.027-0.119 0.092-0.229 0.189-0.315s0.22-0.145 0.354-0.168c0.041-0.008 0.087-0.012 0.135-0.012 0.095 0 0.186 0.017 0.27 0.048l-0.005-0.002c0.127 0.047 0.234 0.125 0.31 0.226s0.117 0.22 0.117 0.341c0 0.081-0.017 0.161-0.052 0.236-0.037 0.078-0.088 0.145-0.149 0.199l-0.001 0.001c-0.064 0.057-0.14 0.103-0.225 0.134-0.079 0.030-0.17 0.047-0.265 0.047-0 0-0 0-0.001 0h0v-0.002zM11.296 19.763h-0.51v0.526h-0.265v-1.288h0.839v0.215h-0.573v0.333h0.51v0.214zM12.571 19.674c0 0.127-0.022 0.238-0.067 0.333s-0.109 0.169-0.193 0.221c-0.079 0.049-0.174 0.078-0.277 0.078-0.003 0-0.007-0-0.010-0h0.001c-0.107 0-0.202-0.026-0.286-0.077-0.085-0.053-0.151-0.128-0.193-0.216l-0.001-0.003c-0.044-0.093-0.070-0.202-0.070-0.318 0-0.004 0-0.008 0-0.012v0.001-0.063c0-0.127 0.023-0.238 0.068-0.334s0.111-0.171 0.194-0.222c0.084-0.052 0.179-0.078 0.287-0.078s0.202 0.026 0.286 0.078c0.084 0.051 0.148 0.125 0.194 0.222s0.069 0.207 0.069 0.333v0.057zM12.303 19.616c0-0.135-0.024-0.238-0.072-0.308-0.043-0.064-0.115-0.105-0.197-0.105-0.004 0-0.007 0-0.011 0l0.001-0c-0.003-0-0.007-0-0.010-0-0.081 0-0.153 0.041-0.196 0.104l-0.001 0.001c-0.048 0.069-0.073 0.17-0.073 0.304v0.063c0 0.131 0.024 0.233 0.072 0.306s0.118 0.109 0.209 0.109c0.003 0 0.007 0 0.010 0 0.081 0 0.152-0.041 0.194-0.104l0.001-0.001c0.048-0.070 0.072-0.172 0.072-0.306v-0.063zM13.432 19.951c0-0.002 0-0.005 0-0.007 0-0.044-0.021-0.082-0.053-0.107l-0-0c-0.035-0.027-0.099-0.056-0.191-0.085-0.085-0.026-0.157-0.056-0.226-0.092l0.008 0.004c-0.146-0.079-0.219-0.186-0.219-0.319 0-0.069 0.019-0.132 0.058-0.186s0.096-0.098 0.169-0.128c0.074-0.030 0.156-0.046 0.248-0.046s0.174 0.017 0.246 0.050c0.072 0.033 0.128 0.080 0.167 0.141s0.060 0.13 0.060 0.207h-0.266c0-0.059-0.018-0.105-0.056-0.137s-0.089-0.049-0.156-0.049c-0.065 0-0.115 0.014-0.151 0.042-0.033 0.024-0.054 0.062-0.054 0.105 0 0.001 0 0.002 0 0.003v-0c0 0.042 0.021 0.077 0.063 0.105s0.105 0.055 0.187 0.079c0.151 0.045 0.261 0.102 0.33 0.169s0.104 0.151 0.104 0.251c0 0.111-0.042 0.199-0.127 0.263s-0.197 0.095-0.34 0.095c-0.099 0-0.189-0.018-0.271-0.054-0.076-0.032-0.14-0.084-0.186-0.148l-0.001-0.001c-0.040-0.059-0.063-0.133-0.063-0.211 0-0.003 0-0.006 0-0.009v0h0.266c0 0.142 0.085 0.213 0.255 0.213 0.063 0 0.112-0.013 0.148-0.038 0.032-0.023 0.053-0.061 0.053-0.103 0-0.002-0-0.004-0-0.005v0zM14.848 19.216h-0.394v1.073h-0.266v-1.073h-0.389v-0.215h1.049v0.215zM15.774 19.731h-0.509v0.345h0.598v0.213h-0.863v-1.288h0.862v0.215h-0.596v0.307h0.51v0.208zM16.495 19.817h-0.211v0.472h-0.265v-1.288h0.479c0.152 0 0.27 0.034 0.352 0.102s0.124 0.164 0.124 0.287c0 0.088-0.019 0.162-0.057 0.22-0.043 0.062-0.101 0.11-0.17 0.139l-0.003 0.001 0.278 0.526v0.012h-0.285l-0.241-0.471zM16.284 19.602h0.214c0.066 0 0.118-0.017 0.155-0.050 0.034-0.033 0.055-0.080 0.055-0.131 0-0.003-0-0.007-0-0.010l0 0c0-0.061-0.017-0.109-0.052-0.143s-0.087-0.052-0.159-0.052h-0.213v0.386zM17.892 19.835v0.454h-0.265v-1.288h0.502c0.097 0 0.182 0.018 0.255 0.053s0.13 0.086 0.17 0.151c0.039 0.065 0.059 0.139 0.059 0.222 0 0.126-0.043 0.226-0.13 0.299s-0.206 0.109-0.358 0.109h-0.232zM17.892 19.62h0.237c0.070 0 0.124-0.017 0.16-0.049 0.037-0.033 0.056-0.080 0.056-0.142 0-0.003 0-0.006 0-0.010 0-0.055-0.021-0.106-0.056-0.144l0 0c-0.037-0.039-0.088-0.059-0.154-0.060h-0.243v0.405zM19.57 19.731h-0.509v0.345h0.598v0.213h-0.863v-1.288h0.862v0.215h-0.596v0.307h0.51v0.208zM20.802 19.216h-0.395v1.073h-0.265v-1.073h-0.389v-0.215h1.049v0.215zM21.729 19.731h-0.509v0.345h0.598v0.213h-0.863v-1.288h0.862v0.215h-0.596v0.307h0.509v0.208zM22.45 19.817h-0.211v0.472h-0.266v-1.288h0.479c0.152 0 0.269 0.034 0.352 0.102s0.124 0.164 0.124 0.287c0 0.088-0.019 0.162-0.057 0.22-0.043 0.062-0.101 0.11-0.17 0.139l-0.003 0.001 0.279 0.526v0.012h-0.285l-0.241-0.471zM22.238 19.602h0.214c0.066 0 0.118-0.017 0.155-0.050 0.034-0.033 0.055-0.080 0.055-0.131 0-0.003-0-0.007-0-0.010l0 0c0-0.061-0.017-0.109-0.052-0.143s-0.087-0.052-0.158-0.052h-0.213v0.386zM23.797 19.951c0-0.002 0-0.005 0-0.008 0-0.044-0.021-0.083-0.053-0.107l-0-0c-0.035-0.027-0.099-0.056-0.191-0.085-0.085-0.026-0.157-0.056-0.226-0.092l0.008 0.004c-0.146-0.079-0.219-0.186-0.219-0.319 0-0.069 0.020-0.132 0.058-0.186s0.096-0.098 0.169-0.128c0.074-0.030 0.156-0.046 0.248-0.046s0.174 0.017 0.246 0.050c0.072 0.033 0.128 0.080 0.167 0.141s0.060 0.13 0.060 0.207h-0.266c0-0.059-0.018-0.105-0.056-0.137s-0.089-0.049-0.156-0.049c-0.065 0-0.115 0.014-0.151 0.042-0.033 0.024-0.054 0.062-0.054 0.105 0 0.001 0 0.002 0 0.003v-0c0 0.042 0.021 0.077 0.063 0.105s0.105 0.055 0.187 0.079c0.151 0.045 0.261 0.102 0.33 0.169s0.104 0.151 0.104 0.251c0 0.111-0.042 0.199-0.127 0.263s-0.198 0.095-0.34 0.095c-0.099 0-0.189-0.018-0.271-0.054-0.076-0.032-0.14-0.084-0.186-0.148l-0.001-0.001c-0.040-0.059-0.063-0.133-0.063-0.211 0-0.003 0-0.006 0-0.009v0h0.266c0 0.142 0.085 0.213 0.255 0.213 0.063 0 0.112-0.013 0.148-0.038 0.032-0.023 0.053-0.061 0.053-0.103 0-0.002-0-0.003-0-0.005v0z"></path>
        </symbol>
        <symbol id="icon-clientsvg4" viewBox="0 0 32 32">
            <path d="M10.991 21.766c0.005 0 0.010 0.001 0.014 0.003s0.008 0.004 0.012 0.007l-0-0 0.066 0.063c-0.051 0.051-0.114 0.092-0.185 0.12-0.073 0.027-0.157 0.043-0.246 0.043-0.006 0-0.012-0-0.018-0l0.001 0c-0.085 0.002-0.168-0.012-0.247-0.040-0.072-0.026-0.134-0.065-0.187-0.113l0 0c-0.051-0.048-0.091-0.106-0.119-0.171l-0.001-0.003c-0.027-0.064-0.042-0.139-0.042-0.218 0-0.002 0-0.004 0-0.007v0c-0-0.003-0-0.007-0-0.012 0-0.154 0.067-0.292 0.173-0.387l0-0c0.056-0.049 0.123-0.088 0.197-0.114 0.081-0.027 0.168-0.041 0.255-0.040 0.005-0 0.010-0 0.016-0 0.079 0 0.155 0.013 0.225 0.038l-0.005-0.001c0.065 0.025 0.125 0.059 0.177 0.101l-0.055 0.067c-0.004 0.005-0.008 0.009-0.014 0.012l-0 0c-0.005 0.003-0.012 0.005-0.019 0.005-0.001 0-0.002-0-0.003-0h0c-0.009-0-0.017-0.003-0.024-0.007l0 0-0.029-0.018-0.041-0.023c-0.038-0.018-0.081-0.032-0.127-0.040l-0.003-0c-0.027-0.005-0.059-0.007-0.091-0.007-0.003 0-0.005 0-0.008 0h0c-0.002-0-0.004-0-0.006-0-0.063 0-0.124 0.011-0.18 0.031l0.004-0.001c-0.055 0.020-0.103 0.048-0.144 0.085l0-0c-0.041 0.039-0.072 0.085-0.093 0.134s-0.034 0.109-0.034 0.171c0 0.002 0 0.004 0 0.006v-0c-0 0.002-0 0.005-0 0.007 0 0.062 0.012 0.122 0.035 0.176l-0.001-0.003c0.020 0.049 0.051 0.095 0.091 0.134 0.038 0.036 0.085 0.065 0.137 0.083 0.054 0.019 0.111 0.029 0.169 0.029 0.034 0 0.067-0.002 0.101-0.006 0.084-0.009 0.158-0.042 0.218-0.093l-0.001 0c0.008-0.007 0.019-0.011 0.031-0.011h0zM12.892 21.45c0 0.002 0 0.004 0 0.007 0 0.078-0.016 0.152-0.046 0.219l0.001-0.003c-0.029 0.068-0.071 0.126-0.123 0.172l-0 0c-0.055 0.049-0.119 0.087-0.191 0.112l-0.004 0.001c-0.075 0.025-0.161 0.040-0.25 0.040s-0.176-0.015-0.256-0.042l0.006 0.002c-0.075-0.027-0.139-0.065-0.194-0.114l0.001 0c-0.053-0.048-0.095-0.106-0.124-0.171l-0.001-0.003c-0.028-0.066-0.044-0.142-0.044-0.223s0.016-0.157 0.046-0.226l-0.001 0.004c0.028-0.065 0.071-0.125 0.125-0.175 0.055-0.048 0.121-0.085 0.193-0.11 0.075-0.026 0.161-0.041 0.25-0.041s0.176 0.015 0.256 0.042l-0.006-0.002c0.073 0.026 0.139 0.064 0.194 0.113s0.097 0.109 0.124 0.172c0.030 0.072 0.046 0.148 0.044 0.224zM12.719 21.45c0-0.003 0-0.006 0-0.009 0-0.061-0.012-0.119-0.033-0.173l0.001 0.003c-0.040-0.103-0.122-0.182-0.224-0.217l-0.003-0.001c-0.054-0.019-0.117-0.029-0.182-0.029s-0.128 0.011-0.186 0.030l0.004-0.001c-0.054 0.019-0.101 0.048-0.139 0.085l0-0c-0.038 0.036-0.069 0.081-0.088 0.131l-0.001 0.002c-0.020 0.053-0.031 0.115-0.031 0.179s0.011 0.126 0.033 0.182l-0.001-0.004c0.040 0.103 0.123 0.182 0.226 0.217l0.003 0.001c0.117 0.038 0.246 0.038 0.364 0 0.053-0.018 0.1-0.047 0.139-0.084 0.040-0.039 0.069-0.085 0.088-0.134 0.022-0.057 0.033-0.118 0.031-0.179zM14.189 21.638l0.018 0.040c0.006-0.014 0.012-0.027 0.019-0.040 0.007-0.016 0.014-0.028 0.022-0.041l-0.001 0.002 0.421-0.664c0.008-0.011 0.016-0.019 0.024-0.021s0.019-0.004 0.029-0.004c0.002 0 0.004 0 0.006 0h0.124v1.081h-0.147v-0.828c-0-0.006-0.001-0.012-0.001-0.019s0-0.013 0.001-0.020l-0 0.001-0.424 0.674c-0.006 0.010-0.014 0.019-0.024 0.024l-0 0c-0.010 0.006-0.023 0.009-0.036 0.009-0 0-0 0-0.001 0h-0.024c-0 0-0.001 0-0.001 0-0.013 0-0.025-0.003-0.036-0.009l0 0c-0.010-0.006-0.019-0.014-0.024-0.024l-0-0-0.436-0.678v0.867h-0.142v-1.078h0.124c0.002-0 0.004-0 0.006-0 0.010 0 0.020 0.001 0.030 0.004l-0.001-0c0.010 0.005 0.018 0.012 0.023 0.021l0.43 0.665c0.008 0.011 0.015 0.024 0.021 0.037l0.001 0.001zM15.772 21.584v0.405h-0.164v-1.079h0.367c0.069-0.001 0.138 0.007 0.205 0.024 0.053 0.013 0.103 0.036 0.145 0.067 0.035 0.028 0.063 0.063 0.081 0.104l0.001 0.002c0.020 0.044 0.029 0.091 0.028 0.138 0 0.002 0 0.004 0 0.007 0 0.097-0.047 0.184-0.119 0.239l-0.001 0.001c-0.042 0.032-0.092 0.057-0.146 0.071-0.056 0.016-0.119 0.025-0.185 0.025-0.005 0-0.009-0-0.014-0l-0.199-0.003zM15.772 21.468h0.199c0.043 0.001 0.086-0.005 0.128-0.016 0.035-0.010 0.066-0.026 0.093-0.047l-0.001 0c0.046-0.038 0.076-0.096 0.076-0.16 0-0.001 0-0.002-0-0.003v0c0-0.003 0-0.008 0-0.012 0-0.028-0.006-0.054-0.017-0.077l0 0.001c-0.014-0.029-0.033-0.054-0.057-0.073l-0-0c-0.055-0.037-0.123-0.059-0.195-0.059-0.009 0-0.018 0-0.027 0.001l0.001-0h-0.199v0.445zM17.984 21.99h-0.13c-0.001 0-0.002 0-0.002 0-0.013 0-0.024-0.004-0.034-0.010l0 0c-0.009-0.006-0.017-0.015-0.022-0.025l-0-0-0.112-0.261h-0.562l-0.116 0.261c-0.010 0.021-0.031 0.035-0.056 0.035-0.001 0-0.001 0-0.002-0h-0.13l0.494-1.081h0.171l0.501 1.081zM17.169 21.589h0.464l-0.196-0.44c-0.015-0.033-0.027-0.067-0.037-0.101l-0.019 0.056c-0.006 0.017-0.012 0.033-0.018 0.046l-0.194 0.439zM18.696 20.915c0.010 0.005 0.018 0.011 0.024 0.019l0.72 0.815v-0.839h0.147v1.081h-0.082c-0.001 0-0.001 0-0.002 0-0.012 0-0.023-0.002-0.032-0.007l0 0c-0.010-0.005-0.019-0.012-0.026-0.020l-0-0-0.719-0.814c0 0.006 0.001 0.012 0.001 0.019s-0 0.013-0.001 0.019l0-0.001v0.803h-0.147v-1.081h0.087c0.010 0 0.020 0.002 0.030 0.005zM20.801 21.56v0.429h-0.165v-0.429l-0.455-0.651h0.147c0.001-0 0.002-0 0.004-0 0.012 0 0.023 0.003 0.032 0.009l-0-0c0.009 0.007 0.017 0.015 0.022 0.024l0.285 0.42c0.011 0.018 0.021 0.034 0.030 0.050s0.015 0.031 0.021 0.046l0.021-0.047c0.008-0.017 0.017-0.033 0.028-0.049l0.281-0.423c0.006-0.009 0.013-0.016 0.021-0.023l0-0c0.009-0.007 0.020-0.011 0.032-0.011 0.001 0 0.002 0 0.003 0h0.149l-0.456 0.654zM14.107 19.096c0.072 0.008 0.144 0.014 0.217 0.020 1.111-0.432 2.050-1.138 2.701-2.031s0.984-1.933 0.959-2.99l-1.224-1.063c0.249 1.125 0.132 2.288-0.336 3.359s-1.271 2.008-2.318 2.705z"></path>
            <path d="M13.671 19.047l0.033 0.006c1.118-0.695 1.97-1.666 2.447-2.786s0.555-2.339 0.226-3.499l-1.743-1.515c0.705 1.245 0.989 2.639 0.818 4.018s-0.788 2.689-1.781 3.775zM19.583 15.344c-0.296 1.161-1.016 2.209-2.051 2.987-0.283 0.215-0.602 0.417-0.938 0.591l-0.037 0.017c0.843-0.215 1.618-0.596 2.266-1.113s1.149-1.156 1.467-1.868l-0.707-0.614z"></path>
            <path d="M19.305 15.173l-1.006-0.875c-0.019 0.997-0.346 1.972-0.945 2.822s-1.45 1.546-2.463 2.015h0.005c0.226 0 0.451-0.012 0.676-0.035 0.947-0.336 1.784-0.87 2.435-1.556s1.098-1.5 1.299-2.371zM13.816 10.614l-1.201-1.045c-1.073 0.36-1.997 0.994-2.649 1.818s-1.003 1.8-1.006 2.8c0.004 1.105 0.432 2.177 1.217 3.047s1.88 1.487 3.114 1.755c1.101-1.166 1.746-2.607 1.841-4.113s-0.366-2.999-1.315-4.263zM22.080 15.012c-0.004-1.311-0.606-2.567-1.672-3.494s-2.513-1.449-4.022-1.453c-0.004 0-0.008 0-0.012 0-0.725 0-1.422 0.121-2.072 0.343l0.045-0.013 7.352 6.389c0.24-0.52 0.38-1.129 0.38-1.771v-0z"></path>
        </symbol>
        <symbol id="icon-clientsvg5" viewBox="0 0 32 32">
            <path d="M15.129 8.735h-0.041c-0.063-0.004-0.127-0.005-0.19-0.007h-0.137c-0.12 0-0.242 0.003-0.363 0.009-0.004-0-0.009-0.001-0.014-0.001s-0.010 0-0.014 0.001l0.001-0c-1.166 0.068-2.248 0.359-3.226 0.832l0.051-0.022-0.13 0.063v6.684l0.306-0.104c0.268-0.092 0.554-0.175 0.849-0.252 0.73-0.195 1.571-0.313 2.437-0.324l0.007-0v0.878c-0.109 0.001-0.215 0.004-0.322 0.009h-0.025c-0.686 0.039-1.329 0.142-1.948 0.304l0.068-0.015c-0.851 0.216-1.596 0.515-2.289 0.898l0.049-0.025v-8.573c0.677-0.402 1.459-0.73 2.288-0.942l0.062-0.014c0.664-0.178 1.426-0.282 2.213-0.286h0.131c0.154 0.004 0.305 0.011 0.446 0.021 0.372 0.026 0.741 0.085 1.103 0.176v0.864c-0.308-0.075-0.673-0.133-1.047-0.16l-0.022-0.001-0.022-0.002c-0.075-0.006-0.149-0.013-0.219-0.013zM16.65 9.618c0.192 0.015 0.39 0.022 0.591 0.022 0.829-0.003 1.631-0.112 2.395-0.314l-0.066 0.015c0.85-0.217 1.596-0.516 2.288-0.898l-0.049 0.025v8.42c-0.677 0.402-1.459 0.73-2.288 0.942l-0.062 0.014c-0.664 0.178-1.427 0.282-2.213 0.285h-0.002c-0.016 0-0.035 0-0.054 0-0.577 0-1.138-0.072-1.672-0.208l0.047 0.010v-8.475c0.13 0.030 0.264 0.058 0.399 0.081 0.223 0.038 0.458 0.065 0.687 0.082zM20.935 9.684l-0.305 0.103c-0.281 0.095-0.565 0.179-0.849 0.254-0.761 0.204-1.635 0.322-2.536 0.325h-0.002c-0.199 0-0.383-0.005-0.56-0.017l-0.244-0.016v6.876l0.209 0.018c0.194 0.017 0.394 0.026 0.596 0.026 0.712-0.003 1.4-0.097 2.055-0.272l-0.057 0.013c0.599-0.152 1.119-0.344 1.612-0.583l-0.050 0.022 0.13-0.063v-6.686z"></path>
            <path d="M10.789 20.592c-0.082-0.085-0.197-0.138-0.324-0.138-0.006 0-0.011 0-0.017 0l0.001-0c-0.002-0-0.004-0-0.007-0-0.068 0-0.133 0.014-0.193 0.038l0.003-0.001c-0.116 0.047-0.206 0.137-0.25 0.251l-0.001 0.003c-0.024 0.060-0.036 0.125-0.035 0.19v1.145c-0.003 0.081 0.013 0.161 0.045 0.235 0.027 0.059 0.066 0.111 0.115 0.154 0.046 0.038 0.099 0.066 0.157 0.081 0.056 0.015 0.114 0.024 0.171 0.024 0.064 0.001 0.127-0.013 0.185-0.040 0.172-0.076 0.29-0.246 0.29-0.442v-0.128h-0.3v0.102c0 0.002 0 0.005 0 0.007 0 0.034-0.006 0.067-0.018 0.097l0.001-0.002c-0.010 0.025-0.025 0.047-0.043 0.065l-0 0c-0.034 0.027-0.078 0.043-0.125 0.044h-0c-0.005 0.001-0.011 0.001-0.018 0.001-0.050 0-0.095-0.024-0.123-0.062l-0-0c-0.025-0.040-0.040-0.089-0.040-0.142 0-0.004 0-0.008 0-0.012l-0 0.001v-1.068c-0.002-0.059 0.011-0.118 0.037-0.171 0.028-0.042 0.075-0.070 0.129-0.070 0.006 0 0.012 0 0.018 0.001l-0.001-0c0.002-0 0.004-0 0.006-0 0.052 0 0.099 0.025 0.128 0.064l0 0c0.031 0.040 0.050 0.092 0.050 0.147 0 0.002-0 0.005-0 0.007v-0 0.099h0.296v-0.117c0-0.002 0-0.003 0-0.005 0-0.070-0.013-0.137-0.038-0.199l0.001 0.004c-0.023-0.063-0.057-0.116-0.1-0.161l0 0zM12.567 20.58c-0.091-0.078-0.21-0.125-0.34-0.126h-0c-0.061 0-0.122 0.011-0.179 0.032-0.124 0.044-0.221 0.135-0.273 0.251l-0.001 0.003c-0.030 0.070-0.045 0.145-0.044 0.222v1.098c-0.002 0.077 0.013 0.154 0.044 0.225 0.027 0.059 0.066 0.112 0.116 0.154 0.046 0.042 0.1 0.075 0.158 0.097 0.057 0.021 0.118 0.032 0.179 0.032 0.131-0 0.25-0.049 0.341-0.129l-0.001 0c0.048-0.043 0.086-0.095 0.113-0.154 0.031-0.071 0.046-0.148 0.044-0.225v-1.099c0-0.003 0-0.006 0-0.010 0-0.077-0.016-0.15-0.045-0.215l0.001 0.003c-0.028-0.063-0.066-0.116-0.113-0.16l-0-0zM12.427 22.060c0 0.005 0.001 0.011 0.001 0.017 0 0.056-0.023 0.106-0.060 0.142l-0 0c-0.038 0.032-0.087 0.051-0.141 0.051s-0.103-0.019-0.141-0.052l0 0c-0.037-0.036-0.060-0.086-0.060-0.142 0-0.006 0-0.012 0.001-0.018l-0 0.001v-1.099c-0-0.005-0.001-0.011-0.001-0.017 0-0.056 0.023-0.106 0.060-0.142l0-0c0.038-0.032 0.087-0.051 0.141-0.051s0.103 0.019 0.141 0.052l-0-0c0.037 0.036 0.060 0.086 0.060 0.142 0 0.006-0 0.012-0.001 0.018l0-0.001v1.099zM14.903 22.551v-2.080h-0.288l-0.378 1.101h-0.005l-0.381-1.101h-0.285v2.079h0.297v-1.265h0.005l0.291 0.894h0.148l0.293-0.894h0.005v1.265h0.297zM16.591 20.617c-0.046-0.051-0.104-0.091-0.168-0.114-0.061-0.021-0.131-0.032-0.204-0.032-0.004 0-0.008 0-0.012 0h-0.441v2.080h0.296v-0.812h0.152c0.093 0.004 0.184-0.015 0.267-0.057 0.068-0.038 0.123-0.092 0.162-0.157l0.001-0.002c0.034-0.055 0.057-0.117 0.068-0.181 0.010-0.065 0.016-0.141 0.016-0.218 0-0.007-0-0.013-0-0.020v0.001c0.003-0.1-0.007-0.2-0.029-0.297-0.021-0.075-0.059-0.139-0.109-0.191l0 0zM16.438 21.251c-0.001 0.040-0.011 0.077-0.028 0.11l0.001-0.002c-0.017 0.032-0.043 0.057-0.075 0.072l-0.001 0c-0.037 0.017-0.079 0.027-0.124 0.027-0.005 0-0.011-0-0.016-0l0.001 0h-0.135v-0.707h0.153c0.004-0 0.009-0 0.014-0 0.043 0 0.084 0.010 0.121 0.027l-0.002-0.001c0.031 0.018 0.055 0.044 0.069 0.076l0 0.001c0.016 0.037 0.025 0.076 0.026 0.116v0.138c0 0.048 0.003 0.098 0 0.143h-0.003zM17.995 20.471h-0.243l-0.458 2.080h0.296l0.087-0.447h0.404l0.087 0.447h0.296l-0.469-2.080zM17.721 21.821l0.146-0.754h0.005l0.145 0.754h-0.296zM19.909 21.724h-0.005l-0.447-1.253h-0.285v2.080h0.296v-1.251h0.006l0.453 1.25h0.279v-2.079h-0.296v1.253zM21.72 20.471l-0.238 0.827h-0.006l-0.238-0.827h-0.313l0.407 1.201v0.879h0.296v-0.879l0.407-1.201h-0.314zM9.962 23.138h0.143v0.401h0.097v-0.401h0.142v-0.082h-0.382v0.082zM11.163 23.056l-0.187 0.483h0.103l0.040-0.11h0.193l0.041 0.11h0.106l-0.192-0.483h-0.103zM11.148 23.348l0.066-0.179 0.066 0.179h-0.131zM12.35 23.361h0.112v0.062c-0.031 0.025-0.071 0.040-0.115 0.041h-0c-0.002 0-0.005 0-0.007 0-0.039 0-0.073-0.018-0.096-0.046l-0-0c-0.022-0.032-0.036-0.072-0.036-0.115 0-0.004 0-0.008 0-0.011l-0 0.001c0-0.107 0.046-0.161 0.139-0.161 0.003-0 0.007-0.001 0.010-0.001 0.048 0 0.088 0.033 0.099 0.077l0 0.001 0.095-0.019c-0.021-0.094-0.088-0.142-0.205-0.142-0.002-0-0.004-0-0.006-0-0.063 0-0.12 0.024-0.163 0.062l0-0c-0.043 0.043-0.070 0.102-0.070 0.168 0 0.006 0 0.013 0.001 0.019l-0-0.001c-0 0.003-0 0.007-0 0.011 0 0.065 0.024 0.124 0.062 0.17l-0-0c0.043 0.044 0.102 0.071 0.168 0.071 0.005 0 0.010-0 0.016-0l-0.001 0c0.002 0 0.005 0 0.008 0 0.076 0 0.145-0.029 0.197-0.077l-0 0v-0.19h-0.209v0.081zM13.562 23.056h-0.098v0.483h0.338v-0.082h-0.24v-0.401zM14.587 23.056h-0.098v0.483h0.098v-0.483zM15.588 23.378l-0.198-0.322h-0.095v0.483h0.091v-0.315l0.194 0.315h0.097v-0.483h-0.090v0.323zM16.494 23.326h0.241v-0.082h-0.241v-0.106h0.259v-0.082h-0.357v0.483h0.366v-0.082h-0.269v-0.131zM18.69 23.246h-0.19v-0.19h-0.097v0.483h0.097v-0.211h0.19v0.211h0.097v-0.483h-0.097v0.191zM19.602 23.326h0.241v-0.082h-0.241v-0.106h0.26v-0.082h-0.356v0.483h0.366v-0.082h-0.269v-0.131zM20.837 23.326c0.084-0.013 0.127-0.058 0.127-0.134 0-0.004 0.001-0.009 0.001-0.014 0-0.039-0.019-0.073-0.048-0.094l-0-0c-0.036-0.018-0.078-0.029-0.122-0.029-0.007 0-0.013 0-0.020 0.001l0.001-0h-0.205v0.483h0.097v-0.202h0.019c0.002-0 0.005-0 0.008-0 0.019 0 0.037 0.004 0.053 0.011l-0.001-0c0.014 0.009 0.026 0.021 0.034 0.035l0.105 0.153h0.116l-0.059-0.094c-0.027-0.047-0.063-0.086-0.106-0.115l-0.001-0.001zM20.739 23.259h-0.072v-0.121h0.076c0.006-0.001 0.013-0.001 0.020-0.001 0.028 0 0.055 0.005 0.080 0.013l-0.002-0c0.013 0.012 0.021 0.029 0.021 0.047 0 0.021-0.010 0.039-0.025 0.051l-0 0c-0.024 0.008-0.052 0.012-0.081 0.012-0.006 0-0.013-0-0.019-0.001l0.001 0zM21.769 23.326h0.24v-0.082h-0.24v-0.106h0.26v-0.082h-0.357v0.483h0.366v-0.082h-0.269v-0.131z"></path>
        </symbol>
        <symbol id="icon-clientsvg6" viewBox="0 0 32 32">
            <path d="M11.472 9.057l2.116 2.003-3.927-0.002v9.717h10.264v-3.715l2.113 2.001v-10.003h-10.566zM19.832 16.824l-5.998-5.678h5.998v5.678zM17.969 19.352h-6.685v-6.535h0.472v6.092h6.212v0.442zM12.863 22.068l-0.247 0.509-0.247-0.509h-0.207l0.36 0.678v0.395h0.187v-0.395l0.36-0.678h-0.206zM13.174 23.141l0.087-0.25h0.416l0.088 0.25h0.195l-0.406-1.073h-0.168l-0.405 1.073h0.194zM13.468 22.296l0.155 0.445h-0.311l0.155-0.445zM14.452 22.715c-0.025 0.038-0.040 0.084-0.040 0.134 0 0.001 0 0.001 0 0.002v-0c0 0.091 0.032 0.164 0.095 0.22s0.149 0.084 0.255 0.084c0.106 0 0.198-0.029 0.274-0.086l0.060 0.072h0.208l-0.158-0.187c0.062-0.085 0.093-0.193 0.093-0.325h-0.155c0 0.072-0.015 0.138-0.045 0.197l-0.207-0.245 0.073-0.053c0.044-0.030 0.082-0.067 0.11-0.111l0.001-0.001c0.021-0.035 0.034-0.077 0.034-0.122 0-0.001 0-0.001 0-0.002v0c0-0.001 0-0.003 0-0.004 0-0.066-0.029-0.125-0.075-0.166l-0-0c-0.048-0.043-0.111-0.070-0.181-0.070-0.004 0-0.007 0-0.011 0l0.001-0c-0.086 0-0.155 0.025-0.206 0.074s-0.077 0.115-0.077 0.199c0 0.034 0.008 0.070 0.024 0.107s0.046 0.081 0.088 0.134c-0.079 0.057-0.133 0.106-0.16 0.148zM14.936 22.952c-0.046 0.037-0.105 0.060-0.169 0.060h-0c-0.003 0-0.006 0-0.009 0-0.046 0-0.088-0.018-0.12-0.047l0 0c-0.030-0.029-0.048-0.070-0.048-0.115 0-0.002 0-0.004 0-0.006v0c0-0.057 0.030-0.109 0.088-0.153l0.023-0.016 0.234 0.277zM14.744 22.477c-0.051-0.063-0.076-0.114-0.076-0.155 0-0.036 0.011-0.066 0.031-0.089 0.019-0.022 0.048-0.036 0.079-0.036 0.002 0 0.003 0 0.005 0h-0c0.001-0 0.002-0 0.004-0 0.030 0 0.056 0.012 0.076 0.030l-0-0c0.021 0.020 0.032 0.044 0.032 0.072 0 0.001 0 0.003 0 0.004 0 0.040-0.018 0.076-0.046 0.1l-0 0-0.023 0.018-0.082 0.056zM16.49 23.060c0.074-0.064 0.116-0.154 0.127-0.268h-0.186c-0.010 0.077-0.033 0.131-0.070 0.164s-0.092 0.049-0.165 0.049c-0.080 0-0.141-0.030-0.183-0.091s-0.062-0.149-0.062-0.266v-0.095c0.001-0.115 0.023-0.201 0.066-0.26s0.106-0.089 0.187-0.089c0.070 0 0.123 0.017 0.159 0.051s0.059 0.090 0.068 0.167h0.186c-0.012-0.117-0.054-0.208-0.126-0.273s-0.168-0.097-0.286-0.097c-0.088 0-0.165 0.021-0.233 0.063-0.067 0.043-0.12 0.104-0.153 0.176l-0.001 0.003c-0.034 0.075-0.054 0.163-0.054 0.255 0 0.004 0 0.009 0 0.013v-0.001 0.1c0.002 0.099 0.020 0.185 0.055 0.26s0.086 0.132 0.15 0.173c0.065 0.040 0.141 0.060 0.226 0.060 0.122 0 0.22-0.032 0.294-0.096zM17.586 22.91c0.036-0.080 0.055-0.172 0.055-0.277v-0.059c0-0.003 0-0.007 0-0.011 0-0.095-0.021-0.186-0.058-0.268l0.002 0.004c-0.034-0.076-0.088-0.137-0.155-0.18l-0.002-0.001c-0.068-0.042-0.145-0.063-0.232-0.063s-0.165 0.021-0.233 0.064c-0.067 0.042-0.12 0.103-0.157 0.184-0.035 0.078-0.055 0.168-0.055 0.264 0 0.005 0 0.009 0 0.014v-0.001 0.060c0.001 0.103 0.019 0.193 0.056 0.272s0.090 0.139 0.158 0.182c0.068 0.042 0.146 0.063 0.233 0.063 0.088 0 0.166-0.021 0.233-0.063s0.12-0.104 0.156-0.183zM17.387 22.303c0.045 0.063 0.068 0.155 0.068 0.274v0.056c0 0.121-0.022 0.213-0.067 0.276s-0.107 0.095-0.19 0.095c-0.002 0-0.005 0-0.008 0-0.076 0-0.143-0.038-0.183-0.096l-0-0.001c-0.046-0.064-0.069-0.155-0.069-0.273v-0.062c0.001-0.115 0.024-0.205 0.069-0.267 0.040-0.058 0.107-0.095 0.182-0.095 0.003 0 0.005 0 0.008 0h-0c0.083 0 0.146 0.032 0.191 0.095z"></path>
        </symbol>
        <symbol id="icon-close-modal" viewBox="0 0 32 32">
            <path d="M26.667 7.303l-1.97-1.97-7.808 7.808-7.808-7.808-1.97 1.97 7.808 7.808-7.808 7.808 1.97 1.97 7.808-7.808 7.808 7.808 1.97-1.97-7.808-7.808 7.808-7.808z"></path>
        </symbol>
        <symbol id="icon-send" viewBox="0 0 32 32">
            <path fill="#fff" style="fill: var(--color1, #fff)" d="M32 0l-32 18 10.227 3.788 15.773-14.788-11.998 16.186 0.010 0.004-0.012-0.004v8.814l5.735-6.691 7.265 2.691 5-28z"></path>
        </symbol>
        <symbol id="icon-checkbox" viewBox="0 0 42 32">
            <path fill="#fff" style="fill: var(--color1, #fff); stroke: var(--color1, #fff)" stroke="#fff" stroke-linejoin="miter" stroke-linecap="butt" stroke-miterlimit="4" stroke-width="0.64" d="M6.263 15.205l-0.22-0.21-3.307 3.132 11.651 11.114 24.477-23.351-3.285-3.134-21.192 20.197-8.124-7.75z"></path>
        </symbol>
        <symbol id="icon-mail-box" viewBox="0 0 32 32">
            <path d="M26.667 5.333h-21.333c-1.467 0-2.653 1.2-2.653 2.667l-0.013 16c0 1.467 1.2 2.667 2.667 2.667h21.333c1.467 0 2.667-1.2 2.667-2.667v-16c0-1.467-1.2-2.667-2.667-2.667zM26.133 11l-9.427 5.893c-0.427 0.267-0.987 0.267-1.413 0l-9.427-5.893c-0.333-0.213-0.533-0.573-0.533-0.96 0-0.893 0.973-1.427 1.733-0.96l8.933 5.587 8.933-5.587c0.76-0.467 1.733 0.067 1.733 0.96 0 0.387-0.2 0.747-0.533 0.96z"></path>
        </symbol>
        <symbol id="icon-phone" viewBox="0 0 32 32">
            <path d="M24.882 19.773l-3.268-0.373c-0.785-0.090-1.557 0.18-2.11 0.733l-2.367 2.367c-3.641-1.853-6.626-4.825-8.478-8.478l2.38-2.38c0.553-0.553 0.823-1.325 0.733-2.11l-0.373-3.242c-0.154-1.299-1.248-2.277-2.56-2.277h-2.226c-1.454 0-2.663 1.209-2.573 2.663 0.682 10.987 9.469 19.761 20.443 20.443 1.454 0.090 2.663-1.119 2.663-2.573v-2.226c0.013-1.299-0.965-2.393-2.264-2.547z"></path>
        </symbol>
        <symbol id="icon-man" viewBox="0 0 32 32">
            <path d="M16 16c2.947 0 5.333-2.387 5.333-5.333s-2.387-5.333-5.333-5.333c-2.947 0-5.333 2.387-5.333 5.333s2.387 5.333 5.333 5.333zM16 18.667c-3.56 0-10.667 1.787-10.667 5.333v1.333c0 0.733 0.6 1.333 1.333 1.333h18.667c0.733 0 1.333-0.6 1.333-1.333v-1.333c0-3.547-7.107-5.333-10.667-5.333z"></path>
        </symbol>
        <symbol id="icon-close_burger" viewBox="0 0 32 32">
            <path d="M23.733 10.304l-1.504-1.504-5.963 5.963-5.963-5.963-1.504 1.504 5.963 5.963-5.963 5.963 1.504 1.504 5.963-5.963 5.963 5.963 1.504-1.504-5.963-5.963 5.963-5.963z"></path>
        </symbol>
        <symbol id="icon-open_burger" viewBox="0 0 48 32">
            <path d="M0 5.333v-5.333h48v5.333h-48zM0 18.667h48v-5.333h-48v5.333zM0 32h48v-5.333h-48v5.333z"></path>
        </symbol>
    </defs>
</svg>